<?xml version="1.0" encoding="UTF-8"?>
<!DOCTYPE svg PUBLIC "-//W3C//DTD SVG 1.1//EN" "http://www.w3.org/Graphics/SVG/1.1/DTD/svg11.dtd">
<svg xmlns="http://www.w3.org/2000/svg" version="1.1" width="200px" height="200px" style="shape-rendering:geometricPrecision; text-rendering:geometricPrecision; image-rendering:optimizeQuality; fill-rule:evenodd; clip-rule:evenodd" xmlns:xlink="http://www.w3.org/1999/xlink">
<g><path style="opacity:1" fill="#1c1c1a" d="M -0.5,-0.5 C 66.1667,-0.5 132.833,-0.5 199.5,-0.5C 199.5,48.8333 199.5,98.1667 199.5,147.5C 197.824,148.183 197.157,149.517 197.5,151.5C 196.5,151.5 195.5,151.5 194.5,151.5C 194.5,147.5 194.5,143.5 194.5,139.5C 192.5,139.5 190.5,139.5 188.5,139.5C 188.5,145.167 188.5,150.833 188.5,156.5C 192.167,156.5 195.833,156.5 199.5,156.5C 199.5,170.833 199.5,185.167 199.5,199.5C 132.833,199.5 66.1667,199.5 -0.5,199.5C -0.5,185.167 -0.5,170.833 -0.5,156.5C 3.18174,156.665 6.84841,156.499 10.5,156C 11.9797,154.701 12.6464,153.034 12.5,151C 11.4002,147.319 10.4002,143.652 9.5,140C 6.18323,139.502 2.8499,139.335 -0.5,139.5C -0.5,92.8333 -0.5,46.1667 -0.5,-0.5 Z"/></g>
<g><path style="opacity:1" fill="#e0aa05" d="M 98.5,18.5 C 99.8117,20.7432 100.478,23.4098 100.5,26.5C 100.167,29.1667 99.8333,31.8333 99.5,34.5C 98.5052,29.2079 98.1718,23.8746 98.5,18.5 Z"/></g>
<g><path style="opacity:1" fill="#d1a008" d="M 81.5,22.5 C 83.8779,26.2467 86.0446,30.2467 88,34.5C 88.7805,35.9437 88.6139,37.277 87.5,38.5C 85.1733,33.8685 82.8399,29.2019 80.5,24.5C 80.8627,23.8165 81.1961,23.1499 81.5,22.5 Z"/></g>
<g><path style="opacity:1" fill="#ce9e08" d="M 117.5,22.5 C 118.497,22.4701 119.164,22.9701 119.5,24C 117.641,29.0841 115.308,33.9174 112.5,38.5C 112.167,38 111.833,37.5 111.5,37C 113.375,32.0882 115.375,27.2548 117.5,22.5 Z"/></g>
<g><path style="opacity:1" fill="#cf9e07" d="M 62.5,30.5 C 65.888,34.2486 69.0546,38.2486 72,42.5C 72.6877,43.3317 72.521,43.9984 71.5,44.5C 68.1756,41.0061 65.009,37.3394 62,33.5C 61.5304,32.4232 61.6971,31.4232 62.5,30.5 Z"/></g>
<g><path style="opacity:1" fill="#d09f07" d="M 134.5,31.5 C 136.355,31.272 137.188,31.9387 137,33.5C 133.991,37.3394 130.824,41.0061 127.5,44.5C 126.479,43.9984 126.312,43.3317 127,42.5C 130.015,39.1223 132.515,35.4556 134.5,31.5 Z"/></g>
<g><path style="opacity:1" fill="#dea905" d="M 91.5,46.5 C 110.306,43.0415 124.472,49.3748 134,65.5C 136.142,69.9699 136.809,74.6365 136,79.5C 112.239,80.6605 88.4059,80.8272 64.5,80C 64.7242,61.9273 73.7242,50.7606 91.5,46.5 Z"/></g>
<g><path style="opacity:1" fill="#1d1d1a" d="M 132.5,74.5 C 111.192,76.489 89.5258,77.1557 67.5,76.5C 70.4418,57.841 81.4418,48.841 100.5,49.5C 118.249,48.9287 128.916,57.262 132.5,74.5 Z"/></g>
<g><path style="opacity:1" fill="#dca805" d="M 106.5,54.5 C 107.5,54.5 108.5,54.5 109.5,54.5C 108.743,58.3629 106.743,59.1962 103.5,57C 104.571,56.1482 105.571,55.3149 106.5,54.5 Z"/></g>
<g><path style="opacity:1" fill="#d8a406" d="M 80.5,57.5 C 83.7967,57.6317 85.4633,59.2984 85.5,62.5C 82.1667,62.5 80.5,60.8333 80.5,57.5 Z"/></g>
<g><path style="opacity:1" fill="#d9a506" d="M 92.5,66.5 C 94.9775,66.0508 96.9775,66.7175 98.5,68.5C 96.604,69.4656 94.604,69.7989 92.5,69.5C 92.5,68.5 92.5,67.5 92.5,66.5 Z"/></g>
<g><path style="opacity:1" fill="#cc9c09" d="M 117.5,66.5 C 119.729,67.0553 121.395,68.3886 122.5,70.5C 120.813,71.568 119.146,71.4014 117.5,70C 116.316,68.8545 116.316,67.6879 117.5,66.5 Z"/></g>
<g><path style="opacity:1" fill="#7e630f" d="M 132.5,74.5 C 133.404,75.209 133.737,76.209 133.5,77.5C 111.327,77.8307 89.327,77.4974 67.5,76.5C 89.5258,77.1557 111.192,76.489 132.5,74.5 Z"/></g>
<g><path style="opacity:1" fill="#f6f2e7" d="M 69.5,87.5 C 74.1667,87.5 78.8333,87.5 83.5,87.5C 83.5,89.5 83.5,91.5 83.5,93.5C 80.2234,93.2161 77.0567,93.5495 74,94.5C 73.5017,97.8168 73.335,101.15 73.5,104.5C 76.8333,104.5 80.1667,104.5 83.5,104.5C 83.5,106.5 83.5,108.5 83.5,110.5C 78.8215,110.666 74.1548,110.499 69.5,110C 68.6667,109.167 67.8333,108.333 67,107.5C 66.3333,101.833 66.3333,96.1667 67,90.5C 68.045,89.6266 68.8783,88.6266 69.5,87.5 Z"/></g>
<g><path style="opacity:1" fill="#e9e5db" d="M 92.5,86.5 C 97.3645,86.0011 101.864,87.0011 106,89.5C 107.072,92.5438 107.572,95.7104 107.5,99C 108.903,107.931 105.07,112.098 96,111.5C 92.2651,111.799 89.2651,110.466 87,107.5C 86.3333,101.833 86.3333,96.1667 87,90.5C 88.4998,88.5313 90.3331,87.198 92.5,86.5 Z"/></g>
<g><path style="opacity:1" fill="#f6f2e8" d="M 127.5,110.5 C 127.666,106.486 127.499,102.486 127,98.5C 126.283,99.0442 125.783,99.7109 125.5,100.5C 123.084,103.249 120.917,102.915 119,99.5C 118.501,103.152 118.335,106.818 118.5,110.5C 116.167,110.5 113.833,110.5 111.5,110.5C 111.5,102.833 111.5,95.1667 111.5,87.5C 113.857,87.3367 116.19,87.5034 118.5,88C 120.123,90.0795 121.623,92.2462 123,94.5C 124.598,88.6273 128.431,86.294 134.5,87.5C 134.5,95.1667 134.5,102.833 134.5,110.5C 132.167,110.5 129.833,110.5 127.5,110.5 Z"/></g>
<g><path style="opacity:1" fill="#1d1d1b" d="M 94.5,93.5 C 96.1667,93.5 97.8333,93.5 99.5,93.5C 99.5,97.1667 99.5,100.833 99.5,104.5C 97.8333,104.5 96.1667,104.5 94.5,104.5C 94.5,100.833 94.5,97.1667 94.5,93.5 Z"/></g>
<g><path style="opacity:1" fill="#8b8982" d="M 127.5,110.5 C 126.833,107.167 126.167,103.833 125.5,100.5C 125.783,99.7109 126.283,99.0442 127,98.5C 127.499,102.486 127.666,106.486 127.5,110.5 Z"/></g>
<g><path style="opacity:1" fill="#e4e1d6" d="M 66.5,115.5 C 69.8499,115.335 73.1832,115.502 76.5,116C 77.9308,116.465 79.0975,117.299 80,118.5C 82.3385,126.325 79.5052,129.658 71.5,128.5C 71.5,130.167 71.5,131.833 71.5,133.5C 69.5,133.5 67.5,133.5 65.5,133.5C 65.2114,127.409 65.5447,121.409 66.5,115.5 Z"/></g>
<g><path style="opacity:1" fill="#eeebe0" d="M 86.5,115.5 C 92.549,114.053 96.049,116.386 97,122.5C 97.4986,126.152 97.6653,129.818 97.5,133.5C 95.8333,133.5 94.1667,133.5 92.5,133.5C 92.5,132.167 92.5,130.833 92.5,129.5C 90.8333,129.5 89.1667,129.5 87.5,129.5C 87.5,130.833 87.5,132.167 87.5,133.5C 85.8333,133.5 84.1667,133.5 82.5,133.5C 81.6337,126.951 82.967,120.951 86.5,115.5 Z"/></g>
<g><path style="opacity:1" fill="#e7e3d9" d="M 101.5,115.5 C 104.959,116.436 107.793,118.436 110,121.5C 109.453,116.363 111.453,114.697 116,116.5C 116.499,122.157 116.666,127.824 116.5,133.5C 114.5,133.5 112.5,133.5 110.5,133.5C 110.701,130.235 109.534,127.569 107,125.5C 106.503,128.146 106.336,130.813 106.5,133.5C 104.5,133.5 102.5,133.5 100.5,133.5C 100.211,127.409 100.545,121.409 101.5,115.5 Z"/></g>
<g><path style="opacity:1" fill="#e8e5da" d="M 129.5,115.5 C 133.24,114.741 134.907,116.241 134.5,120C 132.586,124.412 130.92,128.912 129.5,133.5C 127.5,133.5 125.5,133.5 123.5,133.5C 123.647,129.464 122.147,126.131 119,123.5C 118.503,121.19 118.337,118.857 118.5,116.5C 120.5,116.5 122.5,116.5 124.5,116.5C 124.338,118.527 124.505,120.527 125,122.5C 126,123.833 127,123.833 128,122.5C 128.29,120.08 128.79,117.746 129.5,115.5 Z"/></g>
<g><path style="opacity:1" fill="#272724" d="M 71.5,120.5 C 72.5,120.5 73.5,120.5 74.5,120.5C 74.5,121.833 74.5,123.167 74.5,124.5C 73.5,124.5 72.5,124.5 71.5,124.5C 71.5,123.167 71.5,121.833 71.5,120.5 Z"/></g>
<g><path style="opacity:1" fill="#2c2c28" d="M 89.5,120.5 C 92.3465,122.798 92.0132,124.131 88.5,124.5C 88.4326,123.041 88.7659,121.708 89.5,120.5 Z"/></g>
<g><path style="opacity:1" fill="#f0ece1" d="M -0.5,139.5 C 2.8499,139.335 6.18323,139.502 9.5,140C 10.4002,143.652 11.4002,147.319 12.5,151C 12.6464,153.034 11.9797,154.701 10.5,156C 6.84841,156.499 3.18174,156.665 -0.5,156.5C -0.5,150.833 -0.5,145.167 -0.5,139.5 Z"/></g>
<g><path style="opacity:1" fill="#ede9df" d="M 14.5,139.5 C 16.5,139.5 18.5,139.5 20.5,139.5C 20.5,143.5 20.5,147.5 20.5,151.5C 21.8333,151.5 23.1667,151.5 24.5,151.5C 24.5,147.5 24.5,143.5 24.5,139.5C 26.1667,139.5 27.8333,139.5 29.5,139.5C 29.6659,144.511 29.4993,149.511 29,154.5C 24.0105,157.462 19.3438,157.128 15,153.5C 14.5008,148.845 14.3342,144.179 14.5,139.5 Z"/></g>
<g><path style="opacity:1" fill="#e7e3d9" d="M 32.5,139.5 C 36.5138,139.334 40.5138,139.501 44.5,140C 46.6483,142.075 46.9817,144.408 45.5,147C 47.3398,149.826 48.0065,152.993 47.5,156.5C 45.8333,156.5 44.1667,156.5 42.5,156.5C 42.5,154.5 42.5,152.5 42.5,150.5C 41.1667,150.5 39.8333,150.5 38.5,150.5C 38.5,152.5 38.5,154.5 38.5,156.5C 36.5,156.5 34.5,156.5 32.5,156.5C 32.5,150.833 32.5,145.167 32.5,139.5 Z"/></g>
<g><path style="opacity:1" fill="#eae6dc" d="M 52.5,139.5 C 55.8333,139.5 59.1667,139.5 62.5,139.5C 62.5,141.167 62.5,142.833 62.5,144.5C 60.1667,144.5 57.8333,144.5 55.5,144.5C 55.5,146.833 55.5,149.167 55.5,151.5C 56.5,151.5 57.5,151.5 58.5,151.5C 58.5,150.167 58.5,148.833 58.5,147.5C 60.5,147.5 62.5,147.5 64.5,147.5C 64.5,150.5 64.5,153.5 64.5,156.5C 60.4862,156.666 56.4862,156.499 52.5,156C 52,155.5 51.5,155 51,154.5C 49.9548,149.215 50.4548,144.215 52.5,139.5 Z"/></g>
<g><path style="opacity:1" fill="#eeeadf" d="M 66.5,139.5 C 68.5,139.5 70.5,139.5 72.5,139.5C 72.5,143.5 72.5,147.5 72.5,151.5C 73.8333,151.5 75.1667,151.5 76.5,151.5C 76.5,147.5 76.5,143.5 76.5,139.5C 78.1667,139.5 79.8333,139.5 81.5,139.5C 81.6659,144.511 81.4993,149.511 81,154.5C 77.4054,156.456 73.572,156.956 69.5,156C 68.2986,155.097 67.4652,153.931 67,152.5C 66.501,148.179 66.3343,143.846 66.5,139.5 Z"/></g>
<g><path style="opacity:1" fill="#e6e3d8" d="M 84.5,139.5 C 88.8333,139.5 93.1667,139.5 97.5,139.5C 97.5,140.833 97.5,142.167 97.5,143.5C 95.076,143.192 92.7427,143.526 90.5,144.5C 92.0453,145.452 93.712,145.785 95.5,145.5C 95.5,146.833 95.5,148.167 95.5,149.5C 93.712,149.215 92.0453,149.548 90.5,150.5C 92.7427,151.474 95.076,151.808 97.5,151.5C 97.5,153.167 97.5,154.833 97.5,156.5C 93.1667,156.5 88.8333,156.5 84.5,156.5C 84.5,150.833 84.5,145.167 84.5,139.5 Z"/></g>
<g><path style="opacity:1" fill="#f0ece2" d="M 100.5,139.5 C 104.571,139.234 108.571,139.567 112.5,140.5C 114.576,145.6 115.576,150.933 115.5,156.5C 113.5,156.5 111.5,156.5 109.5,156.5C 109.5,154.5 109.5,152.5 109.5,150.5C 108.167,150.5 106.833,150.5 105.5,150.5C 105.5,152.5 105.5,154.5 105.5,156.5C 103.833,156.5 102.167,156.5 100.5,156.5C 100.5,150.833 100.5,145.167 100.5,139.5 Z"/></g>
<g><path style="opacity:1" fill="#eae6dc" d="M 125.5,139.5 C 128.833,139.5 132.167,139.5 135.5,139.5C 135.5,141.167 135.5,142.833 135.5,144.5C 133.167,144.5 130.833,144.5 128.5,144.5C 128.5,146.833 128.5,149.167 128.5,151.5C 129.5,151.5 130.5,151.5 131.5,151.5C 131.5,150.167 131.5,148.833 131.5,147.5C 133.5,147.5 135.5,147.5 137.5,147.5C 137.5,150.5 137.5,153.5 137.5,156.5C 133.486,156.666 129.486,156.499 125.5,156C 125,155.5 124.5,155 124,154.5C 122.955,149.215 123.455,144.215 125.5,139.5 Z"/></g>
<g><path style="opacity:1" fill="#f1ede2" d="M 140.5,139.5 C 144.182,139.335 147.848,139.501 151.5,140C 153.648,142.075 153.982,144.408 152.5,147C 153.416,147.374 154.25,147.874 155,148.5C 155.497,151.146 155.664,153.813 155.5,156.5C 153.5,156.5 151.5,156.5 149.5,156.5C 149.5,154.5 149.5,152.5 149.5,150.5C 148.167,150.5 146.833,150.5 145.5,150.5C 145.5,152.5 145.5,154.5 145.5,156.5C 143.833,156.5 142.167,156.5 140.5,156.5C 140.5,150.833 140.5,145.167 140.5,139.5 Z"/></g>
<g><path style="opacity:1" fill="#e4e0d6" d="M 157.5,139.5 C 161.5,139.5 165.5,139.5 169.5,139.5C 169.5,141.167 169.5,142.833 169.5,144.5C 168.5,144.5 167.5,144.5 166.5,144.5C 166.5,146.833 166.5,149.167 166.5,151.5C 167.5,151.5 168.5,151.5 169.5,151.5C 169.5,153.167 169.5,154.833 169.5,156.5C 165.5,156.5 161.5,156.5 157.5,156.5C 157.5,154.833 157.5,153.167 157.5,151.5C 158.5,151.5 159.5,151.5 160.5,151.5C 160.5,149.167 160.5,146.833 160.5,144.5C 159.5,144.5 158.5,144.5 157.5,144.5C 157.5,142.833 157.5,141.167 157.5,139.5 Z"/></g>
<g><path style="opacity:1" fill="#ede9de" d="M 172.5,139.5 C 174.167,139.5 175.833,139.5 177.5,139.5C 177.5,143.5 177.5,147.5 177.5,151.5C 178.5,151.5 179.5,151.5 180.5,151.5C 180.5,150.167 180.5,148.833 180.5,147.5C 182.5,147.5 184.5,147.5 186.5,147.5C 186.5,150.5 186.5,153.5 186.5,156.5C 181.833,156.5 177.167,156.5 172.5,156.5C 172.5,150.833 172.5,145.167 172.5,139.5 Z"/></g>
<g><path style="opacity:1" fill="#e4e1d6" d="M 199.5,147.5 C 199.5,150.5 199.5,153.5 199.5,156.5C 195.833,156.5 192.167,156.5 188.5,156.5C 188.5,150.833 188.5,145.167 188.5,139.5C 190.5,139.5 192.5,139.5 194.5,139.5C 194.5,143.5 194.5,147.5 194.5,151.5C 195.5,151.5 196.5,151.5 197.5,151.5C 197.157,149.517 197.824,148.183 199.5,147.5 Z"/></g>
<g><path style="opacity:1" fill="#2a2927" d="M 3.5,143.5 C 4.67504,143.281 5.67504,143.614 6.5,144.5C 4.94835,145.798 3.94835,145.465 3.5,143.5 Z"/></g>
<g><path style="opacity:1" fill="#292826" d="M 38.5,143.5 C 40.4646,143.948 40.7979,144.948 39.5,146.5C 38.6143,145.675 38.281,144.675 38.5,143.5 Z"/></g>
<g><path style="opacity:1" fill="#32322e" d="M 105.5,143.5 C 106.5,143.5 107.5,143.5 108.5,143.5C 108.5,144.5 108.5,145.5 108.5,146.5C 107.5,146.5 106.5,146.5 105.5,146.5C 105.5,145.5 105.5,144.5 105.5,143.5 Z"/></g>
<g><path style="opacity:1" fill="#34332f" d="M 145.5,143.5 C 146.5,143.5 147.5,143.5 148.5,143.5C 148.5,144.5 148.5,145.5 148.5,146.5C 147.5,146.5 146.5,146.5 145.5,146.5C 145.5,145.5 145.5,144.5 145.5,143.5 Z"/></g>
<g><path style="opacity:1" fill="#444440" d="M 3.5,149.5 C 4.83333,149.5 6.16667,149.5 7.5,149.5C 7.5,150.5 7.5,151.5 7.5,152.5C 6.16667,152.5 4.83333,152.5 3.5,152.5C 3.5,151.5 3.5,150.5 3.5,149.5 Z"/></g>
<g><path style="opacity:1" fill="#e9b103" d="M 64.5,162.5 C 88.5,162.5 112.5,162.5 136.5,162.5C 136.783,169.839 133.783,175.339 127.5,179C 118.404,180.126 109.238,180.626 100,180.5C 91.8333,180.333 83.6667,180.167 75.5,180C 67.526,176.862 63.8593,171.029 64.5,162.5 Z"/></g>
<g><path style="opacity:1" fill="#1c1c1a" d="M 67.5,165.5 C 89.5101,165.167 111.51,165.5 133.5,166.5C 131.779,171.057 128.779,174.557 124.5,177C 116.667,177.167 108.833,177.333 101,177.5C 92.0951,177.624 83.2617,177.124 74.5,176C 70.2961,173.762 67.9628,170.262 67.5,165.5 Z"/></g>
</svg>
